{
  "accessors": [
    {
      "bufferView": 2,
      "componentType": 5126,
      "count": 46080,
      "max": [
        0.9235084652900696,
        0.9297711253166199,
        0.9242124557495117
      ],
      "min": [
        -0.9235084652900696,
        -0.9297711253166199,
        -0.9242123961448669
      ],
      "type": "VEC3"
    },
    {
      "bufferView": 2,
      "byteOffset": 552960,
      "componentType": 5126,
      "count": 46080,
      "max": [
        0.9999759197235107,
        1.0,
        1.0
      ],
      "min": [
        -0.9999759793281555,
        -1.0,
        -1.0
      ],
      "type": "VEC3"
    },
    {
      "bufferView": 1,
      "componentType": 5126,
      "count": 46080,
      "max": [
        0.999578595161438,
        0.9992717504501343
      ],
      "min": [
        0.0006537288427352905,
        0.5283461213111877
      ],
      "type": "VEC2"
    },
    {
      "bufferView": 2,
      "byteOffset": 1105920,
      "componentType": 5126,
      "count": 46080,
      "max": [
        1.130604863166809,
        1.1323095560073853,
        1.1629788875579834
      ],
      "min": [
        -1.130604863166809,
        -1.1323095560073853,
        -1.1629787683486938
      ],
      "type": "VEC3"
    },
    {
      "bufferView": 2,
      "byteOffset": 1658880,
      "componentType": 5126,
      "count": 46080,
      "max": [
        0.0003250241279602051,
        0.0002898275852203369,
        0.0002853870391845703
      ],
      "min": [
        -0.0004316568374633789,
        -0.0004413127899169922,
        -0.00038444995880126953
      ],
      "type": "VEC3"
    },
    {
      "bufferView": 2,
      "byteOffset": 2211840,
      "componentType": 5126,
      "count": 46080,
      "max": [
        0.2836796045303345,
        0.27603012323379517,
        0.2779773473739624
      ],
      "min": [
        -0.2836796045303345,
        -0.27603018283843994,
        -0.2779772877693176
      ],
      "type": "VEC3"
    },
    {
      "bufferView": 2,
      "byteOffset": 2764800,
      "componentType": 5126,
      "count": 46080,
      "max": [
        1.716441035270691,
        1.9673972129821777,
        1.7095836400985718
      ],
      "min": [
        -1.5085095167160034,
        -1.968784213066101,
        -1.7606874704360962
      ],
      "type": "VEC3"
    },
    {
      "bufferView": 0,
      "componentType": 5125,
      "count": 69108,
      "type": "SCALAR"
    },
    {
      "bufferView": 3,
      "componentType": 5126,
      "count": 200,
      "max": [
        10.416666984558105
      ],
      "min": [
        0.0416666679084301
      ],
      "type": "SCALAR"
    },
    {
      "bufferView": 3,
      "byteOffset": 800,
      "componentType": 5126,
      "count": 400,
      "max": [
        1.0
      ],
      "min": [
        0.0
      ],
      "type": "SCALAR"
    }
  ],
  "animations": [
    {
      "channels": [
        {
          "sampler": 0,
          "target": {
            "node": 4,
            "path": "weights"
          }
        }
      ],
      "name": "KeyAction",
      "samplers": [
        {
          "input": 8,
          "interpolation": "LINEAR",
          "output": 9
        }
      ]
    }
  ],
  "asset": {
    "extras": {
      "author": "tamminen (https://sketchfab.com/tamminen)",
      "license": "CC-BY-4.0 (http://creativecommons.org/licenses/by/4.0/)",
      "source": "https://sketchfab.com/3d-models/spherecus-1041def020dd4fb9a9cb6033c4eb265b",
      "title": "Spherecus"
    },
    "generator": "Sketchfab-14.4.0",
    "version": "2.0"
  },
  "bufferViews": [
    {
      "buffer": 0,
      "byteLength": 276432,
      "name": "floatBufferViews",
      "target": 34963
    },
    {
      "buffer": 0,
      "byteLength": 368640,
      "byteOffset": 276432,
      "byteStride": 8,
      "name": "floatBufferViews",
      "target": 34962
    },
    {
      "buffer": 0,
      "byteLength": 3317760,
      "byteOffset": 645072,
      "byteStride": 12,
      "name": "floatBufferViews",
      "target": 34962
    },
    {
      "buffer": 0,
      "byteLength": 2400,
      "byteOffset": 3962832,
      "name": "floatBufferViews"
    }
  ],
  "buffers": [
    {
      "byteLength": 3965232,
      "uri": "scene.bin"
    }
  ],
  "materials": [
    {
      "alphaMode": "BLEND",
      "name": "material",
      "pbrMetallicRoughness": {
        "baseColorFactor": [
          0.0,
          0.0,
          0.0,
          0.9310504565347246
        ],
        "metallicFactor": 0.7847642964245224,
        "roughnessFactor": 0.29104850605258986
      }
    }
  ],
  "meshes": [
    {
      "name": "mesh_0",
      "primitives": [
        {
          "attributes": {
            "NORMAL": 1,
            "POSITION": 0,
            "TEXCOORD_0": 2
          },
          "indices": 7,
          "material": 0,
          "mode": 4,
          "targets": [
            {
              "NORMAL": 4,
              "POSITION": 3
            },
            {
              "NORMAL": 6,
              "POSITION": 5
            }
          ]
        }
      ],
      "weights": [
        0.0,
        0.0
      ]
    }
  ],
  "nodes": [
    {
      "children": [
        1
      ],
      "matrix": [
        1.0,
        0.0,
        0.0,
        0.0,
        0.0,
        2.220446049250313e-16,
        -1.0,
        0.0,
        0.0,
        1.0,
        2.220446049250313e-16,
        0.0,
        0.0,
        0.0,
        0.0,
        1.0
      ],
      "name": "Sketchfab_model"
    },
    {
      "children": [
        2
      ],
      "name": "root"
    },
    {
      "children": [
        3
      ],
      "matrix": [
        1.0,
        0.0,
        0.0,
        0.0,
        0.0,
        2.220446049250313e-16,
        1.0,
        0.0,
        0.0,
        -1.0,
        2.220446049250313e-16,
        0.0,
        0.0,
        0.0,
        0.0,
        1.0
      ],
      "name": "GLTF_SceneRootNode"
    },
    {
      "children": [
        4
      ],
      "name": "Icosphere_0"
    },
    {
      "mesh": 0,
      "name": "mesh_0"
    }
  ],
  "scene": 0,
  "scenes": [
    {
      "name": "Sketchfab_Scene",
      "nodes": [
        0
      ]
    }
  ]
}
